<svg width="38" height="38" viewBox="0 0 38 38" fill="none" xmlns="http://www.w3.org/2000/svg">
<path d="M19.0443 27.2808C19.3948 27.2808 19.6903 27.1605 19.931 26.9198C20.1706 26.6771 20.2904 26.3815 20.2904 26.0332C20.2904 25.6827 20.1696 25.3872 19.9278 25.1465C19.6861 24.9058 19.3906 24.7855 19.0412 24.7855C18.6907 24.7855 18.3952 24.9064 18.1545 25.1481C17.9138 25.3898 17.7935 25.6854 17.7935 26.0348C17.7935 26.3852 17.9149 26.6808 18.1577 26.9214C18.3983 27.1621 18.6939 27.2824 19.0443 27.2824V27.2808ZM18.2273 22.04H19.7553C19.7954 21.3507 19.9247 20.7913 20.1432 20.3617C20.3617 19.931 20.8108 19.3821 21.4906 18.715C22.1978 18.0078 22.7235 17.3744 23.0676 16.815C23.4128 16.2556 23.5853 15.6085 23.5853 14.8738C23.5853 13.6262 23.1473 12.6318 22.2712 11.8908C21.394 11.1498 20.3564 10.7793 19.1583 10.7793C18.0194 10.7793 17.0525 11.0886 16.2577 11.7072C15.4628 12.3268 14.8807 13.0382 14.5113 13.8415L15.9679 14.4448C16.2213 13.8684 16.5838 13.3591 17.0557 12.9168C17.5275 12.4735 18.2083 12.2518 19.0982 12.2518C20.1252 12.2518 20.8747 12.5337 21.3465 13.0973C21.8204 13.661 22.0574 14.2806 22.0574 14.9562C22.0574 15.5051 21.9091 15.9948 21.6125 16.4255C21.3169 16.8572 20.9317 17.2911 20.4567 17.727C19.5383 18.5736 18.9367 19.2913 18.6517 19.8803C18.3688 20.4683 18.2273 21.1876 18.2273 22.0384V22.04ZM19.0048 33.25C17.0351 33.25 15.1826 32.8763 13.4473 32.129C11.713 31.3806 10.2041 30.3652 8.9205 29.0827C7.63694 27.8012 6.62097 26.2939 5.87258 24.5607C5.12419 22.8274 4.75 20.9755 4.75 19.0048C4.75 17.0351 5.12367 15.1826 5.871 13.4473C6.61939 11.713 7.63483 10.2041 8.91733 8.9205C10.1988 7.63694 11.7061 6.62097 13.4393 5.87258C15.1726 5.12419 17.0245 4.75 18.9952 4.75C20.9649 4.75 22.8174 5.12367 24.5527 5.871C26.287 6.61939 27.7959 7.63483 29.0795 8.91733C30.3631 10.1988 31.379 11.7061 32.1274 13.4393C32.8758 15.1726 33.25 17.0245 33.25 18.9952C33.25 20.9649 32.8763 22.8174 32.129 24.5527C31.3806 26.287 30.3652 27.7959 29.0827 29.0795C27.8012 30.3631 26.2939 31.379 24.5607 32.1274C22.8274 32.8758 20.9755 33.25 19.0048 33.25ZM19 31.6667C22.5361 31.6667 25.5312 30.4396 27.9854 27.9854C30.4396 25.5312 31.6667 22.5361 31.6667 19C31.6667 15.4639 30.4396 12.4688 27.9854 10.0146C25.5312 7.56042 22.5361 6.33333 19 6.33333C15.4639 6.33333 12.4688 7.56042 10.0146 10.0146C7.56042 12.4688 6.33333 15.4639 6.33333 19C6.33333 22.5361 7.56042 25.5312 10.0146 27.9854C12.4688 30.4396 15.4639 31.6667 19 31.6667Z" fill="#FB2924"/>
</svg>
